<mxfile host="65bd71144e">
    <diagram id="3JusxuQ2zTZb8s0Z4q4s" name="Page-1">
        <mxGraphModel dx="637" dy="396" grid="1" gridSize="20" guides="1" tooltips="1" connect="1" arrows="1" fold="1" page="1" pageScale="1" pageWidth="850" pageHeight="1100" math="0" shadow="0">
            <root>
                <mxCell id="0"/>
                <mxCell id="1" parent="0"/>
                <mxCell id="12" style="edgeStyle=none;html=1;" parent="1" edge="1">
                    <mxGeometry relative="1" as="geometry">
                        <mxPoint x="250" y="330" as="targetPoint"/>
                        <mxPoint x="250" y="330" as="sourcePoint"/>
                    </mxGeometry>
                </mxCell>
                <mxCell id="10" value="" style="rounded=0;whiteSpace=wrap;html=1;fillColor=#dae8fc;strokeColor=#6c8ebf;gradientColor=#7ea6e0;" parent="1" vertex="1">
                    <mxGeometry x="190" y="200" width="170" height="310" as="geometry"/>
                </mxCell>
                <mxCell id="13" value="" style="ellipse;whiteSpace=wrap;html=1;aspect=fixed;fillColor=#392F45;" parent="1" vertex="1">
                    <mxGeometry x="200" y="210" width="20" height="20" as="geometry"/>
                </mxCell>
                <mxCell id="14" value="" style="ellipse;whiteSpace=wrap;html=1;aspect=fixed;fillColor=#392F45;" parent="1" vertex="1">
                    <mxGeometry x="200" y="240" width="20" height="20" as="geometry"/>
                </mxCell>
                <mxCell id="15" value="" style="ellipse;whiteSpace=wrap;html=1;aspect=fixed;fillColor=#392F45;" parent="1" vertex="1">
                    <mxGeometry x="200" y="270" width="20" height="20" as="geometry"/>
                </mxCell>
                <mxCell id="16" value="Samsung" style="text;html=1;strokeColor=none;fillColor=none;align=center;verticalAlign=middle;whiteSpace=wrap;rounded=0;" parent="1" vertex="1">
                    <mxGeometry x="260" y="460" width="25" height="10" as="geometry"/>
                </mxCell>
                <mxCell id="23" value="" style="ellipse;whiteSpace=wrap;html=1;aspect=fixed;labelBackgroundColor=#000000;fillColor=#392F45;" parent="1" vertex="1">
                    <mxGeometry x="235" y="240" width="10" height="10" as="geometry"/>
                </mxCell>
                <mxCell id="25" value="" style="ellipse;whiteSpace=wrap;html=1;aspect=fixed;fillColor=#392F45;" parent="1" vertex="1">
                    <mxGeometry x="235" y="220" width="10" height="10" as="geometry"/>
                </mxCell>
                <mxCell id="26" value="" style="ellipse;whiteSpace=wrap;html=1;aspect=fixed;fillColor=#392F45;" parent="1" vertex="1">
                    <mxGeometry x="235" y="260" width="10" height="10" as="geometry"/>
                </mxCell>
            </root>
        </mxGraphModel>
    </diagram>
</mxfile>